<svg width="25" height="24" viewBox="0 0 25 24" fill="none" xmlns="http://www.w3.org/2000/svg">
<path d="M8.86501 8L8.86501 7C8.86501 4.79086 10.6559 3 12.865 3V3C15.0741 3 16.865 4.79086 16.865 7L16.865 8" stroke="#222222" stroke-width="2" stroke-linecap="round"/>
<path fill-rule="evenodd" clip-rule="evenodd" d="M4.45079 7.58579C3.86501 8.17157 3.86501 9.11438 3.86501 11V14C3.86501 17.7712 3.86501 19.6569 5.03658 20.8284C6.20815 22 8.09377 22 11.865 22H13.865C17.6362 22 19.5219 22 20.6934 20.8284C21.865 19.6569 21.865 17.7712 21.865 14V11C21.865 9.11438 21.865 8.17157 21.2792 7.58579C20.6934 7 19.7506 7 17.865 7H7.86501C5.97939 7 5.03658 7 4.45079 7.58579ZM10.865 12C10.865 11.4477 10.4173 11 9.86501 11C9.31272 11 8.86501 11.4477 8.86501 12V14C8.86501 14.5523 9.31272 15 9.86501 15C10.4173 15 10.865 14.5523 10.865 14V12ZM16.865 12C16.865 11.4477 16.4173 11 15.865 11C15.3127 11 14.865 11.4477 14.865 12V14C14.865 14.5523 15.3127 15 15.865 15C16.4173 15 16.865 14.5523 16.865 14V12Z" fill="#222222"/>
</svg>
