<svg width="24" height="25" viewBox="0 0 24 25" fill="none" xmlns="http://www.w3.org/2000/svg">
<path fill-rule="evenodd" clip-rule="evenodd" d="M4.17157 5.14716C3 6.31873 3 8.20435 3 11.9756V13.9756C3 17.7468 3 19.6324 4.17157 20.804C5.34315 21.9756 7.22876 21.9756 11 21.9756H13C16.7712 21.9756 18.6569 21.9756 19.8284 20.804C21 19.6324 21 17.7468 21 13.9756V11.9756C21 8.20435 21 6.31873 19.8284 5.14716C18.6569 3.97559 16.7712 3.97559 13 3.97559H11C7.22876 3.97559 5.34315 3.97559 4.17157 5.14716ZM11 7.97559V11.9756L7 11.9756V13.9756H11V17.9756H13V13.9756H17V11.9756H13V7.97559H11Z" fill="#222222"/>
</svg>
