<svg width="25" height="24" viewBox="0 0 25 24" fill="none" xmlns="http://www.w3.org/2000/svg">
<path d="M5.43236 13.9082L12.385 20.4395C12.6245 20.6644 12.7442 20.7769 12.8854 20.8046C12.949 20.8171 13.0144 20.8171 13.078 20.8046C13.2192 20.7769 13.3389 20.6644 13.5784 20.4395L20.531 13.9082C22.4872 12.0706 22.7247 9.0466 21.0795 6.92607L20.7701 6.52734C18.802 3.99058 14.8513 4.41601 13.4684 7.31365C13.273 7.72296 12.6904 7.72296 12.495 7.31365C11.1121 4.41601 7.16141 3.99058 5.19323 6.52735L4.88388 6.92607C3.23864 9.0466 3.47619 12.0706 5.43236 13.9082Z" stroke="#33363F" stroke-width="2"/>
</svg>
