<svg width="25" height="24" viewBox="0 0 25 24" fill="none" xmlns="http://www.w3.org/2000/svg">
<path d="M5.98169 12.7596C5.98169 11.4019 5.98169 10.723 6.25615 10.1262C6.53061 9.52949 7.04606 9.08769 8.07694 8.20407L9.07694 7.34693C10.9403 5.7498 11.8719 4.95123 12.9817 4.95123C14.0915 4.95123 15.0231 5.7498 16.8864 7.34693L17.8864 8.20407C18.9173 9.08769 19.4328 9.52949 19.7072 10.1262C19.9817 10.723 19.9817 11.4019 19.9817 12.7596V17C19.9817 18.8856 19.9817 19.8284 19.3959 20.4142C18.8101 21 17.8673 21 15.9817 21H9.98169C8.09607 21 7.15326 21 6.56748 20.4142C5.98169 19.8284 5.98169 18.8856 5.98169 17V12.7596Z" stroke="#33363F" stroke-width="2"/>
<path d="M15.4817 21V16C15.4817 15.4477 15.034 15 14.4817 15H11.4817C10.9294 15 10.4817 15.4477 10.4817 16V21" stroke="#33363F" stroke-width="2" stroke-linecap="round" stroke-linejoin="round"/>
</svg>
