<svg width="65" height="64" viewBox="0 0 65 64" fill="none" xmlns="http://www.w3.org/2000/svg">
<path d="M28.169 7C25.412 7 23.169 9.243 23.169 12V15H13.169C12.065 15 11.169 15.896 11.169 17C11.169 18.104 12.065 19 13.169 19H15.2784L16.962 49.332C17.14 52.51 19.7692 55 22.9522 55H41.3858C44.5678 55 47.198 52.51 47.376 49.332L49.0596 19H51.169C52.273 19 53.169 18.104 53.169 17C53.169 15.896 52.273 15 51.169 15H41.169V12C41.169 9.243 38.926 7 36.169 7H28.169ZM28.169 11H36.169C36.721 11 37.169 11.449 37.169 12V15H27.169V12C27.169 11.449 27.617 11 28.169 11ZM19.2823 19H45.0557L43.3819 49.1094C43.3229 50.1694 42.4468 51 41.3858 51H22.9522C21.8922 51 21.0151 50.1703 20.9561 49.1113L19.2823 19ZM32.169 23.25C31.202 23.25 30.419 24.034 30.419 25V45C30.419 45.966 31.202 46.75 32.169 46.75C33.136 46.75 33.919 45.966 33.919 45V25C33.919 24.034 33.136 23.25 32.169 23.25ZM24.8116 23.252C23.8466 23.286 23.0911 24.0945 23.1241 25.0605L23.8214 45.1465C23.8544 46.0915 24.6314 46.8359 25.5694 46.8359C25.5904 46.8359 25.6109 46.8359 25.6319 46.8359C26.5969 46.8019 27.3524 45.9914 27.3194 45.0254L26.6221 24.9395C26.5881 23.9745 25.7756 23.229 24.8116 23.252ZM39.5245 23.252C38.5575 23.225 37.7499 23.9745 37.7159 24.9395L37.0186 45.0254C36.9846 45.9914 37.7401 46.8019 38.7061 46.8359C38.7271 46.8369 38.7476 46.8359 38.7686 46.8359C39.7066 46.8359 40.4837 46.0915 40.5167 45.1465L41.2139 25.0605C41.2479 24.0945 40.4905 23.286 39.5245 23.252Z" fill="#2A1A8F"/>
</svg>
