<?xml version="1.0" encoding="UTF-8"?>
<svg id="Layer_2" data-name="Layer 2" xmlns="http://www.w3.org/2000/svg" viewBox="0 0 40 40">
  <defs>
    <style>
      .cls-1 {
        fill: #000;
        stroke-width: 0px;
      }

      .cls-2 {
        fill: none;
        fill-rule: evenodd;
        stroke: #000;
        stroke-linecap: round;
        stroke-linejoin: round;
        stroke-width: 2px;
      }
    </style>
  </defs>
  <g id="Layer_1-2" data-name="Layer 1">
    <g>
      <g id="btn_close" data-name="btn close">
        <path class="cls-1" d="M20,2c9.93,0,18,8.07,18,18s-8.07,18-18,18S2,29.93,2,20,10.07,2,20,2M20,0C8.95,0,0,8.95,0,20s8.95,20,20,20,20-8.95,20-20S31.05,0,20,0h0Z"/>
      </g>
      <path class="cls-2" d="M30.31,12.69c-2.25-2.25-5.9-2.25-8.16,0l-2.15,2.16-2.16-2.16c-1.12-1.13-2.6-1.69-4.08-1.69s-2.95.56-4.08,1.69c-2.25,2.25-2.25,5.9,0,8.16l2.16,2.16,8.16,8.16,8.16-8.16,2.15-2.16c1.13-1.13,1.69-2.61,1.69-4.08s-.56-2.95-1.69-4.08Z"/>
    </g>
  </g>
</svg>